Coordinates
version=1
nRows=16
nColumns=36
inDegrees=yes

Units are S.I. units (second, meters, Newtons, ...)
If the header above contains a line with 'inDegrees', this indicates whether rotational values are in degrees (yes) or radians (no).

endheader
time	pelvis_tilt	pelvis_list	pelvis_rotation	pelvis_tx	pelvis_ty	pelvis_tz	hip_flexion_r	hip_adduction_r	hip_rotation_r	knee_angle_r	knee_angle_r_beta	ankle_angle_r	subtalar_angle_r	mtp_angle_r	hip_flexion_l	hip_adduction_l	hip_rotation_l	knee_angle_l	knee_angle_l_beta	ankle_angle_l	subtalar_angle_l	mtp_angle_l	lumbar_extension	lumbar_bending	lumbar_rotation	arm_flex_r	arm_add_r	arm_rot_r	elbow_flex_r	pro_sup_r	arm_flex_l	arm_add_l	arm_rot_l	elbow_flex_l	pro_sup_l
     44.65000000	      9.50889419	     -5.70572608	    184.11052403	      0.50835335	      0.85478536	      0.78990476	     35.22028239	     -9.28496812	     -1.29063387	     16.29104104	      0.28433230	    -13.27838613	      7.42057111	     -7.49999987	     10.94835478	      9.49240524	      2.16217770	     21.82692991	      0.38095179	     -2.57352530	     -8.80644797	     -7.49999987	     -2.87110980	     -6.06127944	     -9.60318334	      1.08605269	     -5.96963064	     -3.51472332	     10.90687076	     83.08422286	     18.31366320	    -18.10572001	     -7.15822708	     18.94669793	     95.23992672
     44.66666670	      9.01017760	     -6.47319663	    184.06372486	      0.50797554	      0.84987022	      0.78834559	     33.88353615	     -9.36883303	     -2.03679959	     11.84406878	      0.20671800	    -15.11948849	     10.16595460	     -7.49999987	      9.61468493	     10.25595661	      2.36776377	     23.42024623	      0.40876041	     -0.25160329	     -7.85662336	     -7.49999987	     -3.02328741	     -6.96712004	    -10.21697191	     -0.13660862	     -5.36127726	     -3.82491956	     10.30174116	     83.16674258	     18.24911444	    -19.04822531	     -7.51538855	     18.83593019	     95.30620226
     44.68333330	      8.29369838	     -6.95317598	    183.79129983	      0.50835950	      0.84519147	      0.78691666	     32.82545500	     -9.31012543	     -3.40523171	      9.82125849	      0.17141330	    -16.51228821	     11.72345020	     -7.49999987	      8.41131909	     10.54363052	      1.75035141	     25.45992416	      0.44435950	      2.74778078	     -5.63801790	     -7.49999987	     -3.47561616	     -7.40969631	    -10.49562368	     -1.11095155	     -5.08326596	     -4.43888194	      9.76744288	     83.37791293	     18.25823638	    -19.70114650	     -8.03617527	     18.60542067	     95.58755872
     44.70000000	      8.08878337	     -7.12340613	    183.65219782	      0.50895174	      0.84222951	      0.78594277	     32.49595622	     -9.36715520	     -5.13984940	      9.70101237	      0.16931461	    -18.37399085	     11.93406023	     -7.49999987	      7.98074921	     10.55657441	      1.43060423	     27.58858296	      0.48151161	      4.48793784	     -5.06048691	     -7.49999987	     -3.28964613	     -7.51062634	    -10.46952715	     -2.27186025	     -5.12310567	     -4.68682460	      9.40536145	     83.46784186	     18.21931613	    -19.94232470	     -8.19248280	     18.50540992	     95.72832271
     44.71666670	      8.18705170	     -6.95885130	    183.55171757	      0.50985159	      0.83986057	      0.78430144	     32.74112118	     -9.29163854	     -6.82211997	     10.53112486	      0.18380280	    -19.34024982	     11.36931556	     -7.49999987	      8.18320048	     10.07188306	      0.78550648	     30.10780375	      0.52548031	      6.41551860	     -3.91263448	     -7.49999987	     -2.93741581	     -7.08495856	    -10.30994659	     -3.46373660	     -5.39672149	     -5.37729291	      9.35660727	     83.66677757	     18.15366825	    -20.01272300	     -8.34995552	     18.13869914	     96.12905577
     44.73333330	      8.44083294	     -6.63629925	    183.44606108	      0.51006420	      0.83695716	      0.78192547	     33.33418254	     -9.04546374	     -7.94077689	     11.63003810	      0.20298246	    -19.36781413	      9.97017374	     -7.49999987	      8.74708439	      9.47863827	      0.45938932	     33.08897878	      0.57751163	      7.84026041	     -4.03912459	     -7.49999987	     -2.61988033	     -6.51375665	    -10.03784144	     -4.46658831	     -5.75532718	     -6.23554076	      9.31850085	     83.92607343	     18.09579204	    -19.88275772	     -8.36636893	     17.87832490	     96.62035346
     44.75000000	      8.58266441	     -6.03108033	    183.34749020	      0.50930784	      0.83380731	      0.77964279	     33.69703796	     -8.39001900	     -8.50048157	     12.45201446	      0.21732865	    -17.92912404	      8.51867478	     -7.49999987	      9.26762614	      8.59502352	      0.25428782	     36.46018414	      0.63635026	      9.11176934	     -4.53002968	     -7.49999987	     -2.51955539	     -5.64540302	     -9.71581519	     -5.08588771	     -6.25439465	     -6.75346054	      9.07317749	     84.09320735	     17.94881224	    -19.61924066	     -8.31860911	     17.71152817	     96.90276971
     44.76666670	      9.10717967	     -5.28740050	    183.19643972	      0.50899763	      0.83086624	      0.77766197	     34.38023937	     -7.40351183	     -8.12444986	     13.05127782	      0.22778777	    -15.78847529	      7.08248725	     -7.49999987	     10.32619281	      7.52342687	     -0.14036193	     40.08867859	      0.69967943	      9.99191957	     -4.96637498	     -7.49999987	     -1.99750933	     -4.62572396	     -9.31568828	     -5.45287838	     -6.84030109	     -7.73545629	      8.77524314	     84.45497429	     17.65042095	    -19.24531072	     -8.13196976	     17.22210745	     97.44645463
     44.78333330	      9.13347095	     -4.50347018	    183.04632481	      0.50922408	      0.82893364	      0.77523317	     34.34538210	     -6.37794667	     -7.87076603	     13.58369456	      0.23708019	    -14.68088730	      6.09000693	     -7.49999987	     10.90391812	      6.36401557	     -0.36299215	     43.59282455	      0.76083832	      9.57914438	     -5.95156636	     -7.49999987	     -2.31446453	     -3.48088440	     -8.92675467	     -5.38706110	     -7.46666618	     -8.03502307	      8.47324200	     84.56839640	     17.36014980	    -18.82812504	     -8.01867960	     16.99621129	     97.60439541
     44.80000000	      9.51414427	     -3.56810304	    182.99369955	      0.50755345	      0.82692025	      0.77164865	     34.41107913	     -5.23817463	     -7.86738491	     13.95420331	      0.24354679	    -15.93502682	      4.87292582	     -7.49999987	     12.06938041	      4.90139969	     -0.59103467	     47.33932472	      0.82622708	      7.59965188	     -7.27966992	     -7.49999987	     -2.06700938	     -2.32181648	     -8.57409389	     -5.15881631	     -8.05907921	     -8.49158388	      8.03441716	     84.78699282	     17.00035506	    -18.34106172	     -7.79361706	     16.48352883	     97.86599556
     44.81666670	      9.70410177	     -2.50308435	    182.76726164	      0.50169816	      0.82541999	      0.76637949	     34.00326333	     -3.78666222	     -7.72776569	     14.28777440	      0.24936871	    -17.55996293	      3.99917915	     -7.49999987	     13.03883080	      3.07359215	     -0.84148043	     51.24568015	      0.89440585	      4.04233277	     -8.79568297	     -7.49999987	     -1.65848328	     -1.15977499	     -8.23768077	     -4.80574306	     -8.55183941	     -8.86065709	      7.69791294	     85.02166734	     16.30204822	    -17.90013517	     -7.57961867	     15.77784998	     98.02698478
     44.83333330	      9.61966153	     -1.14327013	    182.46314360	      0.49199032	      0.82451227	      0.75934464	     33.00247220	     -1.81020661	     -7.18044748	     14.66318269	      0.25592082	    -17.65508464	      3.28797885	     -7.49999987	     13.89095868	      0.75060284	     -0.90389288	     55.80993273	      0.97406708	     -0.31729850	    -10.09368705	     -7.49999987	     -1.07783054	      0.13193992	     -7.91068681	     -4.51618927	     -8.94764587	     -9.08431727	      7.28721167	     85.32287474	     15.28345753	    -17.38304542	     -7.43897473	     14.84786481	     98.13130881
     44.85000000	      9.34574625	      0.13129585	    182.19173931	      0.48297880	      0.82433900	      0.75063558	     31.54106422	      0.16805841	     -6.47947359	     15.34101041	      0.26775114	    -17.38606093	      2.23078078	     -7.49999987	     14.90026564	     -1.51852545	     -0.81285553	     61.02783407	      1.06513664	     -4.97302770	    -11.03979825	     -7.49999987	     -0.15777270	      1.05632222	     -7.55232090	     -4.29202398	     -9.13911793	    -11.06874857	      6.54602888	     92.56819409	     14.28405905	    -16.93610930	     -7.21544338	     13.15792248	     99.97158533
     44.86666670	      8.63860704	      1.17918803	    182.20206325	      0.48024981	      0.82654166	      0.74269521	     29.46753901	      1.77113316	     -5.94241838	     16.10761315	      0.28113088	    -17.28957209	      0.86444342	     -7.49999987	     16.17726839	     -3.41142740	     -0.60970474	     66.50298733	      1.16069609	     -8.96226066	    -11.97291030	     -7.49999987	      0.07481455	      1.61737539	     -7.18291703	     -4.18556592	     -9.07528481	    -11.18840562	      6.47761902	     92.56457899	     13.29050943	    -16.61083321	     -7.38040421	     12.45876752	     99.78710260
     44.88333330	      7.73017985	      1.65538182	    182.42130041	      0.48335651	      0.83017855	      0.73767900	     27.37275020	      2.56218930	     -5.65044555	     17.23685925	      0.30083995	    -17.16318831	     -0.50177535	     -7.49999987	     18.05614391	     -4.51942422	     -0.57100699	     71.51801197	      1.24822478	    -11.55336203	    -12.77103585	     -7.49999987	     -0.51120882	      1.50452367	     -6.65870354	     -3.88078077	     -8.78040623	    -11.19528793	      6.98981859	     92.44863105	     12.72521054	    -16.55100578	     -7.44760028	     12.38036515	     99.54381782
     44.90000000	      7.01509004	      1.80908122	    182.93091414	      0.48746054	      0.83324144	      0.73562257	     25.47586911	      2.84968745	     -5.24055961	     17.97247621	      0.31367888	    -18.61547655	     -4.11813109	     -7.49999987	     20.66521302	     -4.91482817	     -0.35871155	     75.30356551	      1.31429516	    -13.60639456	    -15.14193485	     -7.49999987	     -1.21930120	      1.09093405	     -6.07329997	     -3.15168002	     -8.52116475	    -11.27629855	      7.26412762	     92.43523268	     12.69913465	    -16.53816257	     -7.60044189	     12.03755811	     99.41603492
